<svg xmlns="http://www.w3.org/2000/svg" width="850" height="300" viewBox="0 0 850 300">
  <defs>
    <clipPath id="banner-clip"><rect width="850" height="300"/></clipPath>
    <!-- Scanline pattern -->
    <pattern id="scanlines" width="850" height="4" patternUnits="userSpaceOnUse">
      <rect width="850" height="2" fill="rgba(0,0,0,0.3)"/>
      <rect y="2" width="850" height="2" fill="transparent"/>
    </pattern>
    <!-- Grid pattern for ground -->
    <linearGradient id="grid-fade" x1="0" y1="0" x2="0" y2="1">
      <stop offset="0%" stop-color="#00f0ff" stop-opacity="0"/>
      <stop offset="40%" stop-color="#00f0ff" stop-opacity="0.15"/>
      <stop offset="100%" stop-color="#00f0ff" stop-opacity="0.5"/>
    </linearGradient>
    <linearGradient id="sky-grad" x1="0" y1="0" x2="0" y2="1">
      <stop offset="0%" stop-color="#0a0a0f"/>
      <stop offset="60%" stop-color="#0a0a0f"/>
      <stop offset="85%" stop-color="#1a0030"/>
      <stop offset="100%" stop-color="#0d0020"/>
    </linearGradient>
    <linearGradient id="horizon-glow" x1="0" y1="0" x2="0" y2="1">
      <stop offset="0%" stop-color="#ff2d95" stop-opacity="0"/>
      <stop offset="70%" stop-color="#ff2d95" stop-opacity="0.08"/>
      <stop offset="100%" stop-color="#ff2d95" stop-opacity="0.25"/>
    </linearGradient>
  </defs>

  <style>
    /* Glitch title animation */
    @keyframes glitch {
      0%, 100% { transform: translate(0, 0); }
      2% { transform: translate(-3px, 1px); }
      4% { transform: translate(3px, -1px); }
      6% { transform: translate(-2px, 0); }
      8% { transform: translate(0, 0); }
      40% { transform: translate(0, 0); }
      42% { transform: translate(4px, 1px); }
      43% { transform: translate(-3px, -1px); }
      44% { transform: translate(2px, 0); }
      46% { transform: translate(0, 0); }
      78% { transform: translate(0, 0); }
      79% { transform: translate(-4px, 0); }
      80% { transform: translate(3px, 1px); }
      81% { transform: translate(0, 0); }
    }
    @keyframes glitch-r {
      0%, 100% { transform: translate(0, 0); opacity: 0; }
      2% { transform: translate(4px, -2px); opacity: 0.7; }
      4% { transform: translate(-3px, 1px); opacity: 0.5; }
      6% { transform: translate(2px, 0); opacity: 0; }
      8%, 40% { transform: translate(0, 0); opacity: 0; }
      42% { transform: translate(-5px, 2px); opacity: 0.6; }
      44% { transform: translate(3px, -1px); opacity: 0.4; }
      46%, 78% { transform: translate(0, 0); opacity: 0; }
      79% { transform: translate(5px, 1px); opacity: 0.7; }
      81% { transform: translate(0, 0); opacity: 0; }
    }
    @keyframes glitch-b {
      0%, 100% { transform: translate(0, 0); opacity: 0; }
      2% { transform: translate(-4px, 2px); opacity: 0.6; }
      4% { transform: translate(3px, -1px); opacity: 0.4; }
      6% { transform: translate(-2px, 0); opacity: 0; }
      8%, 40% { transform: translate(0, 0); opacity: 0; }
      42% { transform: translate(5px, -2px); opacity: 0.5; }
      44% { transform: translate(-3px, 1px); opacity: 0.6; }
      46%, 78% { transform: translate(0, 0); opacity: 0; }
      79% { transform: translate(-5px, -1px); opacity: 0.6; }
      81% { transform: translate(0, 0); opacity: 0; }
    }

    .title-main { animation: glitch 3s infinite steps(1); }
    .title-r { animation: glitch-r 3s infinite steps(1); }
    .title-b { animation: glitch-b 3s infinite steps(1); }

    /* Neon pulse */
    @keyframes neon-pulse {
      0%, 100% { opacity: 1; }
      50% { opacity: 0.7; }
      85% { opacity: 1; }
      90% { opacity: 0.4; }
      92% { opacity: 1; }
    }
    @keyframes neon-pulse-alt {
      0%, 100% { opacity: 0.9; }
      30% { opacity: 1; }
      60% { opacity: 0.6; }
      62% { opacity: 1; }
      80% { opacity: 0.8; }
    }
    .neon-flicker { animation: neon-pulse 4s infinite; }
    .neon-flicker-alt { animation: neon-pulse-alt 3.5s infinite; }

    /* Scanline sweep */
    @keyframes scanline-move {
      0% { transform: translateY(-300px); }
      100% { transform: translateY(300px); }
    }
    .scanline-sweep { animation: scanline-move 6s linear infinite; }

    /* Code rain animations */
    @keyframes rain1 { 0% { transform: translateY(-30px); opacity: 0; } 10% { opacity: 0.9; } 90% { opacity: 0.9; } 100% { transform: translateY(310px); opacity: 0; } }
    @keyframes rain2 { 0% { transform: translateY(-50px); opacity: 0; } 15% { opacity: 0.7; } 85% { opacity: 0.7; } 100% { transform: translateY(320px); opacity: 0; } }
    @keyframes rain3 { 0% { transform: translateY(-20px); opacity: 0; } 10% { opacity: 0.5; } 80% { opacity: 0.5; } 100% { transform: translateY(300px); opacity: 0; } }
    @keyframes rain4 { 0% { transform: translateY(-40px); opacity: 0; } 12% { opacity: 0.8; } 88% { opacity: 0.6; } 100% { transform: translateY(330px); opacity: 0; } }

    .rain-1 { animation: rain1 4.5s linear infinite; }
    .rain-2 { animation: rain2 5.2s linear infinite; }
    .rain-3 { animation: rain3 3.8s linear infinite; }
    .rain-4 { animation: rain4 6s linear infinite; }
    .rain-5 { animation: rain1 5.8s linear infinite; }
    .rain-6 { animation: rain2 4.1s linear infinite; }
    .rain-7 { animation: rain3 6.5s linear infinite; }
    .rain-8 { animation: rain4 3.5s linear infinite; }
    .rain-9 { animation: rain1 7s linear infinite; }
    .rain-10 { animation: rain2 4.8s linear infinite; }
    .rain-11 { animation: rain3 5.5s linear infinite; }
    .rain-12 { animation: rain4 4.3s linear infinite; }

    /* Window flicker */
    @keyframes wflick1 { 0%,49%{opacity:0.1}50%,100%{opacity:0.9} }
    @keyframes wflick2 { 0%,29%{opacity:0.8}30%,59%{opacity:0.1}60%,100%{opacity:0.7} }
    @keyframes wflick3 { 0%,69%{opacity:0.1}70%,84%{opacity:0.9}85%,100%{opacity:0.2} }
    @keyframes wflick4 { 0%,19%{opacity:0.9}20%,79%{opacity:0.1}80%,100%{opacity:0.6} }
    @keyframes wflick5 { 0%,39%{opacity:0.2}40%,59%{opacity:0.8}60%,100%{opacity:0.1} }
    @keyframes wflick6 { 0%,59%{opacity:0.7}60%,89%{opacity:0.1}90%,100%{opacity:0.9} }

    .wf1 { animation: wflick1 3s steps(1) infinite; }
    .wf2 { animation: wflick2 4s steps(1) infinite; }
    .wf3 { animation: wflick3 5s steps(1) infinite; }
    .wf4 { animation: wflick4 3.5s steps(1) infinite; }
    .wf5 { animation: wflick5 4.5s steps(1) infinite; }
    .wf6 { animation: wflick6 2.8s steps(1) infinite; }

    /* Subtitle typing cursor blink */
    @keyframes cursor-blink {
      0%, 49% { opacity: 1; }
      50%, 100% { opacity: 0; }
    }
    .cursor { animation: cursor-blink 1s steps(1) infinite; }

    /* Horizon line pulse */
    @keyframes horizon-pulse {
      0%, 100% { opacity: 0.6; }
      50% { opacity: 1; }
    }
    .horizon-line { animation: horizon-pulse 3s ease-in-out infinite; }
  </style>

  <g clip-path="url(#banner-clip)">
    <!-- Background -->
    <rect width="850" height="300" fill="url(#sky-grad)"/>
    <rect width="850" height="300" fill="url(#horizon-glow)"/>

    <!-- Perspective grid ground (vaporwave style) -->
    <g opacity="0.4">
      <line x1="0" y1="300" x2="850" y2="300" stroke="#00f0ff" stroke-width="1.5" opacity="0.6"/>
      <line x1="100" y1="285" x2="750" y2="285" stroke="#00f0ff" stroke-width="1" opacity="0.4"/>
      <line x1="180" y1="272" x2="670" y2="272" stroke="#00f0ff" stroke-width="0.8" opacity="0.3"/>
      <line x1="240" y1="262" x2="610" y2="262" stroke="#00f0ff" stroke-width="0.6" opacity="0.25"/>
      <line x1="290" y1="254" x2="560" y2="254" stroke="#00f0ff" stroke-width="0.5" opacity="0.2"/>
      <line x1="320" y1="248" x2="530" y2="248" stroke="#00f0ff" stroke-width="0.4" opacity="0.15"/>
      <line x1="0" y1="300" x2="425" y2="230" stroke="#00f0ff" stroke-width="0.5" opacity="0.2"/>
      <line x1="85" y1="300" x2="425" y2="230" stroke="#00f0ff" stroke-width="0.5" opacity="0.2"/>
      <line x1="170" y1="300" x2="425" y2="230" stroke="#00f0ff" stroke-width="0.5" opacity="0.22"/>
      <line x1="255" y1="300" x2="425" y2="230" stroke="#00f0ff" stroke-width="0.5" opacity="0.25"/>
      <line x1="340" y1="300" x2="425" y2="230" stroke="#00f0ff" stroke-width="0.5" opacity="0.28"/>
      <line x1="425" y1="300" x2="425" y2="230" stroke="#00f0ff" stroke-width="0.6" opacity="0.3"/>
      <line x1="510" y1="300" x2="425" y2="230" stroke="#00f0ff" stroke-width="0.5" opacity="0.28"/>
      <line x1="595" y1="300" x2="425" y2="230" stroke="#00f0ff" stroke-width="0.5" opacity="0.25"/>
      <line x1="680" y1="300" x2="425" y2="230" stroke="#00f0ff" stroke-width="0.5" opacity="0.22"/>
      <line x1="765" y1="300" x2="425" y2="230" stroke="#00f0ff" stroke-width="0.5" opacity="0.2"/>
      <line x1="850" y1="300" x2="425" y2="230" stroke="#00f0ff" stroke-width="0.5" opacity="0.2"/>
    </g>

    <!-- Digital rain / matrix code columns -->
    <g font-family="monospace" font-size="11" fill="#39ff14">
      <text x="30" y="0" class="rain-1" opacity="0">0xF</text>
      <text x="30" y="30" class="rain-1" opacity="0" style="animation-delay:-1.2s">int</text>
      <text x="30" y="60" class="rain-1" opacity="0" style="animation-delay:-2.5s">A=1</text>
      <text x="30" y="90" class="rain-1" opacity="0" style="animation-delay:-3.8s">}{</text>
      <text x="80" y="0" class="rain-2" opacity="0">&amp;&amp;</text>
      <text x="80" y="35" class="rain-2" opacity="0" style="animation-delay:-0.8s">for</text>
      <text x="80" y="70" class="rain-2" opacity="0" style="animation-delay:-2s">++i</text>
      <text x="80" y="105" class="rain-2" opacity="0" style="animation-delay:-3.3s">;</text>
      <text x="130" y="0" class="rain-3" opacity="0">def</text>
      <text x="130" y="28" class="rain-3" opacity="0" style="animation-delay:-1s">=()</text>
      <text x="130" y="56" class="rain-3" opacity="0" style="animation-delay:-2.2s">ret</text>
      <text x="130" y="84" class="rain-3" opacity="0" style="animation-delay:-3s">nil</text>
      <text x="175" y="0" class="rain-4" opacity="0">sys</text>
      <text x="175" y="32" class="rain-4" opacity="0" style="animation-delay:-1.5s">run</text>
      <text x="175" y="64" class="rain-4" opacity="0" style="animation-delay:-2.8s">0x1</text>
      <text x="680" y="0" class="rain-5" opacity="0">new</text>
      <text x="680" y="30" class="rain-5" opacity="0" style="animation-delay:-0.6s">fn(</text>
      <text x="680" y="60" class="rain-5" opacity="0" style="animation-delay:-1.8s">|&gt;</text>
      <text x="680" y="90" class="rain-5" opacity="0" style="animation-delay:-3.2s">end</text>
      <text x="720" y="0" class="rain-6" opacity="0">::</text>
      <text x="720" y="34" class="rain-6" opacity="0" style="animation-delay:-1.1s">pub</text>
      <text x="720" y="68" class="rain-6" opacity="0" style="animation-delay:-2.4s">mut</text>
      <text x="720" y="102" class="rain-6" opacity="0" style="animation-delay:-3.6s">ref</text>
      <text x="760" y="0" class="rain-7" opacity="0">ACK</text>
      <text x="760" y="30" class="rain-7" opacity="0" style="animation-delay:-0.9s">TCP</text>
      <text x="760" y="60" class="rain-7" opacity="0" style="animation-delay:-2.1s">SYN</text>
      <text x="805" y="0" class="rain-8" opacity="0">010</text>
      <text x="805" y="28" class="rain-8" opacity="0" style="animation-delay:-0.5s">101</text>
      <text x="805" y="56" class="rain-8" opacity="0" style="animation-delay:-1.7s">110</text>
      <text x="805" y="84" class="rain-8" opacity="0" style="animation-delay:-2.9s">001</text>
      <text x="10" y="0" class="rain-9" opacity="0" fill="#00f0ff" font-size="9">DP</text>
      <text x="10" y="25" class="rain-9" opacity="0" style="animation-delay:-1.4s" fill="#00f0ff" font-size="9">AC</text>
      <text x="10" y="50" class="rain-9" opacity="0" style="animation-delay:-3s" fill="#00f0ff" font-size="9">++</text>
      <text x="835" y="0" class="rain-10" opacity="0" fill="#00f0ff" font-size="9">ff</text>
      <text x="835" y="24" class="rain-10" opacity="0" style="animation-delay:-1.6s" fill="#00f0ff" font-size="9">0a</text>
      <text x="210" y="0" class="rain-11" opacity="0" font-size="9">let</text>
      <text x="210" y="26" class="rain-11" opacity="0" style="animation-delay:-2s" font-size="9">var</text>
      <text x="640" y="0" class="rain-12" opacity="0" font-size="9">map</text>
      <text x="640" y="28" class="rain-12" opacity="0" style="animation-delay:-1.3s" font-size="9">vec</text>
    </g>

    <!-- City skyline silhouette -->
    <g fill="#0a0a0f">
      <rect x="0" y="200" width="45" height="100" fill="#0e0e18"/>
      <rect x="42" y="185" width="35" height="115" fill="#0d0d15"/>
      <rect x="75" y="195" width="50" height="105" fill="#0e0e18"/>
      <rect x="122" y="175" width="30" height="125" fill="#0c0c14"/>
      <rect x="150" y="190" width="55" height="110" fill="#0e0e18"/>
      <rect x="200" y="170" width="40" height="130" fill="#0d0d15"/>
      <rect x="238" y="185" width="35" height="115" fill="#0e0e18"/>

      <rect x="570" y="180" width="40" height="120" fill="#0d0d15"/>
      <rect x="608" y="190" width="50" height="110" fill="#0e0e18"/>
      <rect x="655" y="170" width="35" height="130" fill="#0c0c14"/>
      <rect x="688" y="185" width="45" height="115" fill="#0e0e18"/>
      <rect x="730" y="195" width="55" height="105" fill="#0d0d15"/>
      <rect x="782" y="180" width="35" height="120" fill="#0e0e18"/>
      <rect x="815" y="190" width="40" height="110" fill="#0d0d15"/>

      <!-- Antenna spires -->
      <line x1="140" y1="175" x2="140" y2="155" stroke="#1a1a2e" stroke-width="2"/>
      <line x1="220" y1="170" x2="220" y2="148" stroke="#1a1a2e" stroke-width="2"/>
      <line x1="672" y1="170" x2="672" y2="145" stroke="#1a1a2e" stroke-width="2"/>
      <!-- Antenna tip lights -->
      <circle cx="140" cy="155" r="2" fill="#ff2d95" class="neon-flicker" opacity="0.8"/>
      <circle cx="220" cy="148" r="2" fill="#00f0ff" class="neon-flicker-alt" opacity="0.8"/>
      <circle cx="672" cy="145" r="2" fill="#ff2d95" class="neon-flicker" opacity="0.8"/>
    </g>

    <!-- Building windows (flickering) -->
    <g>
      <rect x="50" y="192" width="3" height="3" fill="#ffcc00" class="wf1"/>
      <rect x="56" y="192" width="3" height="3" fill="#00f0ff" class="wf2"/>
      <rect x="50" y="198" width="3" height="3" fill="#ff2d95" class="wf3"/>
      <rect x="56" y="198" width="3" height="3" fill="#ffcc00" class="wf4"/>
      <rect x="50" y="204" width="3" height="3" fill="#00f0ff" class="wf5"/>
      <rect x="56" y="210" width="3" height="3" fill="#ff2d95" class="wf6"/>

      <rect x="85" y="200" width="3" height="3" fill="#ffcc00" class="wf3"/>
      <rect x="91" y="200" width="3" height="3" fill="#00f0ff" class="wf1"/>
      <rect x="97" y="200" width="3" height="3" fill="#ff2d95" class="wf5"/>
      <rect x="85" y="206" width="3" height="3" fill="#ffcc00" class="wf2"/>
      <rect x="91" y="206" width="3" height="3" fill="#00f0ff" class="wf4"/>
      <rect x="97" y="212" width="3" height="3" fill="#39ff14" class="wf6"/>

      <rect x="130" y="180" width="3" height="3" fill="#00f0ff" class="wf4"/>
      <rect x="136" y="180" width="3" height="3" fill="#ffcc00" class="wf1"/>
      <rect x="130" y="186" width="3" height="3" fill="#ff2d95" class="wf6"/>
      <rect x="136" y="192" width="3" height="3" fill="#00f0ff" class="wf3"/>

      <rect x="160" y="196" width="3" height="3" fill="#ffcc00" class="wf5"/>
      <rect x="166" y="196" width="3" height="3" fill="#00f0ff" class="wf2"/>
      <rect x="172" y="196" width="3" height="3" fill="#ff2d95" class="wf4"/>
      <rect x="160" y="202" width="3" height="3" fill="#39ff14" class="wf1"/>
      <rect x="172" y="202" width="3" height="3" fill="#ffcc00" class="wf6"/>

      <rect x="208" y="176" width="3" height="3" fill="#00f0ff" class="wf2"/>
      <rect x="214" y="176" width="3" height="3" fill="#ff2d95" class="wf5"/>
      <rect x="208" y="182" width="3" height="3" fill="#ffcc00" class="wf3"/>
      <rect x="214" y="182" width="3" height="3" fill="#00f0ff" class="wf1"/>
      <rect x="208" y="188" width="3" height="3" fill="#39ff14" class="wf4"/>
      <rect x="214" y="194" width="3" height="3" fill="#ff2d95" class="wf6"/>

      <rect x="578" y="186" width="3" height="3" fill="#ffcc00" class="wf3"/>
      <rect x="584" y="186" width="3" height="3" fill="#00f0ff" class="wf5"/>
      <rect x="578" y="192" width="3" height="3" fill="#ff2d95" class="wf1"/>
      <rect x="584" y="198" width="3" height="3" fill="#ffcc00" class="wf4"/>

      <rect x="618" y="196" width="3" height="3" fill="#00f0ff" class="wf2"/>
      <rect x="624" y="196" width="3" height="3" fill="#ff2d95" class="wf6"/>
      <rect x="630" y="196" width="3" height="3" fill="#39ff14" class="wf3"/>
      <rect x="618" y="202" width="3" height="3" fill="#ffcc00" class="wf1"/>
      <rect x="624" y="202" width="3" height="3" fill="#00f0ff" class="wf5"/>

      <rect x="662" y="176" width="3" height="3" fill="#ff2d95" class="wf4"/>
      <rect x="668" y="176" width="3" height="3" fill="#ffcc00" class="wf2"/>
      <rect x="662" y="182" width="3" height="3" fill="#00f0ff" class="wf6"/>
      <rect x="668" y="188" width="3" height="3" fill="#39ff14" class="wf1"/>

      <rect x="696" y="190" width="3" height="3" fill="#ffcc00" class="wf5"/>
      <rect x="702" y="190" width="3" height="3" fill="#00f0ff" class="wf3"/>
      <rect x="708" y="190" width="3" height="3" fill="#ff2d95" class="wf1"/>
      <rect x="696" y="196" width="3" height="3" fill="#39ff14" class="wf4"/>
      <rect x="702" y="196" width="3" height="3" fill="#ffcc00" class="wf6"/>
      <rect x="708" y="202" width="3" height="3" fill="#00f0ff" class="wf2"/>

      <rect x="742" y="200" width="3" height="3" fill="#ff2d95" class="wf3"/>
      <rect x="748" y="200" width="3" height="3" fill="#ffcc00" class="wf5"/>
      <rect x="754" y="200" width="3" height="3" fill="#00f0ff" class="wf1"/>
      <rect x="748" y="206" width="3" height="3" fill="#39ff14" class="wf2"/>

      <rect x="790" y="186" width="3" height="3" fill="#ffcc00" class="wf6"/>
      <rect x="796" y="186" width="3" height="3" fill="#00f0ff" class="wf4"/>
      <rect x="790" y="192" width="3" height="3" fill="#ff2d95" class="wf1"/>
    </g>

    <!-- Neon horizon line - multi-layer glow simulation -->
    <line x1="0" y1="248" x2="850" y2="248" stroke="#ff2d95" stroke-width="6" opacity="0.1" class="horizon-line"/>
    <line x1="0" y1="248" x2="850" y2="248" stroke="#ff2d95" stroke-width="3" opacity="0.25" class="horizon-line"/>
    <line x1="0" y1="248" x2="850" y2="248" stroke="#ff2d95" stroke-width="1.5" opacity="0.7" class="horizon-line"/>

    <!-- Decorative neon accents on buildings - multi-layer -->
    <line x1="150" y1="190" x2="205" y2="190" stroke="#ff2d95" stroke-width="4" opacity="0.12" class="neon-flicker"/>
    <line x1="150" y1="190" x2="205" y2="190" stroke="#ff2d95" stroke-width="2" opacity="0.5" class="neon-flicker"/>
    <line x1="150" y1="190" x2="205" y2="190" stroke="#ff6dba" stroke-width="1" opacity="0.8" class="neon-flicker"/>

    <line x1="608" y1="190" x2="658" y2="190" stroke="#00f0ff" stroke-width="4" opacity="0.12" class="neon-flicker-alt"/>
    <line x1="608" y1="190" x2="658" y2="190" stroke="#00f0ff" stroke-width="2" opacity="0.5" class="neon-flicker-alt"/>
    <line x1="608" y1="190" x2="658" y2="190" stroke="#80f8ff" stroke-width="1" opacity="0.8" class="neon-flicker-alt"/>

    <!-- ===== MAIN TITLE: "Daily-AC" with glitch effect ===== -->
    <g transform="translate(425, 115)" text-anchor="middle">
      <!-- Glitch layer: red channel offset -->
      <text class="title-r" font-family="'Courier New', monospace" font-size="72" font-weight="bold"
            fill="#ff2d95" opacity="0" x="0" y="0">Daily-AC</text>
      <!-- Glitch layer: blue channel offset -->
      <text class="title-b" font-family="'Courier New', monospace" font-size="72" font-weight="bold"
            fill="#00f0ff" opacity="0" x="0" y="0">Daily-AC</text>
      <!-- Glow layers for main title (simulated filter) -->
      <text class="title-main" font-family="'Courier New', monospace" font-size="72" font-weight="bold"
            fill="#00f0ff" opacity="0.15" x="0" y="2">Daily-AC</text>
      <text class="title-main" font-family="'Courier New', monospace" font-size="72" font-weight="bold"
            fill="#00f0ff" opacity="0.15" x="0" y="-2">Daily-AC</text>
      <text class="title-main" font-family="'Courier New', monospace" font-size="72" font-weight="bold"
            fill="#00f0ff" opacity="0.1" x="2" y="0">Daily-AC</text>
      <text class="title-main" font-family="'Courier New', monospace" font-size="72" font-weight="bold"
            fill="#00f0ff" opacity="0.1" x="-2" y="0">Daily-AC</text>
      <!-- Main title -->
      <text class="title-main" font-family="'Courier New', monospace" font-size="72" font-weight="bold"
            fill="#ffffff" x="0" y="0">Daily-AC</text>
    </g>

    <!-- Neon underline decoration - multi-layer glow -->
    <g class="neon-flicker">
      <!-- Pink line glow layers -->
      <line x1="260" y1="132" x2="385" y2="132" stroke="#ff2d95" stroke-width="5" opacity="0.12"/>
      <line x1="260" y1="132" x2="385" y2="132" stroke="#ff2d95" stroke-width="2.5" opacity="0.5"/>
      <line x1="260" y1="132" x2="385" y2="132" stroke="#ff6dba" stroke-width="1.5" opacity="0.9"/>
      <!-- Cyan line glow layers -->
      <line x1="465" y1="132" x2="590" y2="132" stroke="#00f0ff" stroke-width="5" opacity="0.12"/>
      <line x1="465" y1="132" x2="590" y2="132" stroke="#00f0ff" stroke-width="2.5" opacity="0.5"/>
      <line x1="465" y1="132" x2="590" y2="132" stroke="#80f8ff" stroke-width="1.5" opacity="0.9"/>
      <!-- Green center glow layers -->
      <rect x="384" y="129" width="82" height="6" fill="#39ff14" opacity="0.08" rx="3"/>
      <rect x="385" y="130" width="80" height="4" fill="#39ff14" opacity="0.5"/>
      <rect x="386" y="131" width="78" height="2" fill="#90ff80" opacity="0.9"/>
    </g>

    <!-- Subtitle with glow simulation -->
    <g transform="translate(425, 160)" text-anchor="middle">
      <text font-family="'Courier New', monospace" font-size="14" fill="#00f0ff" letter-spacing="4" opacity="0.2" x="1" y="1">
        SYSTEM ONLINE // CODE.COMPILE.CONQUER
      </text>
      <text font-family="'Courier New', monospace" font-size="14" fill="#00f0ff" letter-spacing="4" opacity="0.9">
        SYSTEM ONLINE // CODE.COMPILE.CONQUER
      </text>
      <!-- Blinking cursor -->
      <rect x="248" y="-12" width="8" height="14" fill="#39ff14" class="cursor" opacity="0.9"/>
    </g>

    <!-- Status bar decorations -->
    <g font-family="'Courier New', monospace" font-size="9" fill="#39ff14" opacity="0.5">
      <text x="15" y="18" class="neon-flicker-alt">[SYS:ACTIVE]</text>
      <text x="740" y="18" class="neon-flicker">[NET:CONNECTED]</text>
      <text x="15" y="295" class="neon-flicker">&gt;_ READY</text>
      <text x="720" y="295" class="neon-flicker-alt">v2.0.26 // 2026</text>
    </g>

    <!-- Corner decorations (cyber frame) -->
    <g stroke="#ff2d95" stroke-width="1.5" opacity="0.5" class="neon-flicker">
      <line x1="5" y1="5" x2="40" y2="5"/>
      <line x1="5" y1="5" x2="5" y2="40"/>
      <line x1="810" y1="5" x2="845" y2="5"/>
      <line x1="845" y1="5" x2="845" y2="40"/>
      <line x1="5" y1="260" x2="5" y2="295"/>
      <line x1="5" y1="295" x2="40" y2="295"/>
      <line x1="845" y1="260" x2="845" y2="295"/>
      <line x1="810" y1="295" x2="845" y2="295"/>
    </g>
    <g stroke="#00f0ff" stroke-width="1" opacity="0.3" class="neon-flicker-alt">
      <line x1="8" y1="8" x2="30" y2="8"/>
      <line x1="8" y1="8" x2="8" y2="30"/>
      <line x1="820" y1="8" x2="842" y2="8"/>
      <line x1="842" y1="8" x2="842" y2="30"/>
      <line x1="8" y1="270" x2="8" y2="292"/>
      <line x1="8" y1="292" x2="30" y2="292"/>
      <line x1="842" y1="270" x2="842" y2="292"/>
      <line x1="820" y1="292" x2="842" y2="292"/>
    </g>

    <!-- Scanlines overlay (static) -->
    <rect width="850" height="300" fill="url(#scanlines)" opacity="0.4"/>

    <!-- Moving scanline highlight -->
    <rect class="scanline-sweep" x="0" y="0" width="850" height="8" fill="#00f0ff" opacity="0.04"/>

    <!-- Vignette edges -->
    <rect width="850" height="300" fill="transparent" stroke="#0a0a0f" stroke-width="30" opacity="0.5"/>
  </g>
</svg>